# xmcd
#
# Track frame offsets: 
#        150
#        18464
#        37524
#        55767
#        73112
#        93621
#        109007
#        127802
#        142810
#        161055
#        178416
#        200099
#        215011
#
# Disc length: 3061 seconds
#
# Revision: 2
# Processed by: cddbd v1.5.2PL0 Copyright (c) Steve Scherf et al.
# Submitted via: ExactAudioCopy v0.99pb5
#
DISCID=b80bf30d
DTITLE=משה פרץ - מהשמיים
DYEAR=2010
DGENRE=מזרחית
TTITLE0=אשמור עלייך
TTITLE1=איך שאת יפה
TTITLE2=מה קורה איתך
TTITLE3=מושלמת
TTITLE4=שתיים בלילה
TTITLE5=מהשמיים
TTITLE6=סודות האהבה
TTITLE7=פזמון קטן על אהבה
TTITLE8=עד שתשובי אליי
TTITLE9=אין כמו בבית
TTITLE10=אמא
TTITLE11=לך
TTITLE12=תמיד ידעתי
EXTD=
EXTT0=
EXTT1=
EXTT2=
EXTT3=
EXTT4=
EXTT5=
EXTT6=
EXTT7=
EXTT8=
EXTT9=
EXTT10=
EXTT11=
EXTT12=
PLAYORDER=
